# xmcd CD database file
#
# Track frame offsets:
#	150
#	33205
#	78187
#	112516
#
# Disc length: 2189 seconds
#
# Revision: 0
# Processed by: cddbd v1.5.2PL0 Copyright (c) Steve Scherf et al.
# Submitted via: CDex 1.70beta2
#
DISCID=19088b04
DTITLE=Mouthus - Follow this house
DYEAR=2007
DGENRE=Jazz
TTITLE0=Vacation eyes
TTITLE1=Cameras
TTITLE2=Lake
TTITLE3=Half- thaw
EXTD=YEAR: 2007
EXTT0=
EXTT1=
EXTT2=
EXTT3=
PLAYORDER=
